<mxfile host="app.diagrams.net" modified="2020-12-30T03:24:44.590Z" agent="5.0 (Windows NT 10.0; Win64; x64) AppleWebKit/537.36 (KHTML, like Gecko) Chrome/87.0.4280.88 Safari/537.36" etag="1eKTWPXa54XuxTXc0EcF" version="14.1.3" type="github">
  <diagram id="tJRnp0v06SBhazAe2PgV" name="第 1 页">
    <mxGraphModel dx="1022" dy="123" grid="1" gridSize="10" guides="1" tooltips="1" connect="1" arrows="1" fold="1" page="0" pageScale="1" pageWidth="3300" pageHeight="4681" math="0" shadow="0">
      <root>
        <mxCell id="0" />
        <mxCell id="1" parent="0" />
        <mxCell id="iP3Lr3HVFY1aXU4YxGAK-9" value="Pool" style="swimlane;html=1;childLayout=stackLayout;resizeParent=1;resizeParentMax=0;horizontal=0;startSize=20;horizontalStack=0;" parent="1" vertex="1">
          <mxGeometry x="30" y="680" width="960" height="850" as="geometry" />
        </mxCell>
        <mxCell id="iP3Lr3HVFY1aXU4YxGAK-37" value="构建工具" style="swimlane;html=1;startSize=20;horizontal=0;" parent="iP3Lr3HVFY1aXU4YxGAK-9" vertex="1">
          <mxGeometry x="20" width="940" height="290" as="geometry" />
        </mxCell>
        <mxCell id="iP3Lr3HVFY1aXU4YxGAK-45" value="&lt;p style=&quot;margin: 0in ; font-family: &amp;#34;calibri&amp;#34; ; font-size: 11.0pt&quot; lang=&quot;en-US&quot;&gt;GNU build system&lt;/p&gt;&lt;p style=&quot;margin: 0in ; font-family: &amp;#34;calibri&amp;#34; ; font-size: 11.0pt&quot; lang=&quot;en-US&quot;&gt;automake、&lt;span style=&quot;font-size: 11pt&quot;&gt;autoconf&lt;/span&gt;&lt;/p&gt;" style="rounded=1;whiteSpace=wrap;html=1;" parent="iP3Lr3HVFY1aXU4YxGAK-37" vertex="1">
          <mxGeometry x="185" y="160" width="190" height="70" as="geometry" />
        </mxCell>
        <mxCell id="iP3Lr3HVFY1aXU4YxGAK-51" value="&lt;p style=&quot;margin: 0in ; font-family: &amp;#34;calibri&amp;#34; ; font-size: 11.0pt&quot; lang=&quot;en-US&quot;&gt;Cmake&lt;/p&gt;&lt;p style=&quot;margin: 0in ; font-size: 11.0pt&quot;&gt;&lt;span style=&quot;font-family: &amp;#34;calibri&amp;#34;&quot; lang=&quot;en-US&quot;&gt;cmakelist&lt;/span&gt;&lt;span style=&quot;font-family: &amp;#34;microsoft yahei&amp;#34;&quot; lang=&quot;zh-CN&quot;&gt;生成&lt;/span&gt;&lt;span style=&quot;font-family: &amp;#34;calibri&amp;#34;&quot; lang=&quot;en-US&quot;&gt;makefile&lt;/span&gt;&lt;/p&gt;" style="rounded=1;whiteSpace=wrap;html=1;" parent="iP3Lr3HVFY1aXU4YxGAK-37" vertex="1">
          <mxGeometry x="410" y="155" width="190" height="70" as="geometry" />
        </mxCell>
        <mxCell id="iP3Lr3HVFY1aXU4YxGAK-52" value="&lt;p style=&quot;margin: 0in ; font-family: &amp;#34;calibri&amp;#34; ; font-size: 11.0pt&quot; lang=&quot;en-US&quot;&gt;meson&lt;/p&gt;" style="rounded=1;whiteSpace=wrap;html=1;" parent="iP3Lr3HVFY1aXU4YxGAK-37" vertex="1">
          <mxGeometry x="630" y="160" width="190" height="70" as="geometry" />
        </mxCell>
        <mxCell id="iP3Lr3HVFY1aXU4YxGAK-62" value="&lt;p style=&quot;margin: 0in ; font-family: &amp;#34;calibri&amp;#34; ; font-size: 11.0pt&quot; lang=&quot;en-US&quot;&gt;MSBuild (Visual Studio)&lt;/p&gt;&lt;p style=&quot;margin: 0in ; font-family: &amp;#34;calibri&amp;#34; ; font-size: 11.0pt&quot; lang=&quot;en-US&quot;&gt;&lt;span style=&quot;color: rgb(18 , 18 , 18) ; font-family: , &amp;#34;blinkmacsystemfont&amp;#34; , &amp;#34;helvetica neue&amp;#34; , &amp;#34;pingfang sc&amp;#34; , &amp;#34;microsoft yahei&amp;#34; , &amp;#34;source han sans sc&amp;#34; , &amp;#34;noto sans cjk sc&amp;#34; , &amp;#34;wenquanyi micro hei&amp;#34; , sans-serif ; font-size: 15px&quot;&gt;Visual C++ Build Tools&lt;/span&gt;&lt;br&gt;&lt;/p&gt;" style="rounded=1;whiteSpace=wrap;html=1;" parent="iP3Lr3HVFY1aXU4YxGAK-37" vertex="1">
          <mxGeometry x="20" y="170" width="170" height="40" as="geometry" />
        </mxCell>
        <mxCell id="iP3Lr3HVFY1aXU4YxGAK-68" style="edgeStyle=orthogonalEdgeStyle;rounded=0;orthogonalLoop=1;jettySize=auto;html=1;exitX=0.5;exitY=1;exitDx=0;exitDy=0;" parent="iP3Lr3HVFY1aXU4YxGAK-37" source="iP3Lr3HVFY1aXU4YxGAK-65" target="iP3Lr3HVFY1aXU4YxGAK-62" edge="1">
          <mxGeometry relative="1" as="geometry" />
        </mxCell>
        <mxCell id="iP3Lr3HVFY1aXU4YxGAK-69" style="edgeStyle=orthogonalEdgeStyle;rounded=0;orthogonalLoop=1;jettySize=auto;html=1;exitX=0.75;exitY=1;exitDx=0;exitDy=0;" parent="iP3Lr3HVFY1aXU4YxGAK-37" source="iP3Lr3HVFY1aXU4YxGAK-65" target="iP3Lr3HVFY1aXU4YxGAK-51" edge="1">
          <mxGeometry relative="1" as="geometry" />
        </mxCell>
        <mxCell id="iP3Lr3HVFY1aXU4YxGAK-70" value="2017之后" style="edgeLabel;html=1;align=center;verticalAlign=middle;resizable=0;points=[];" parent="iP3Lr3HVFY1aXU4YxGAK-69" vertex="1" connectable="0">
          <mxGeometry x="0.1774" y="4" relative="1" as="geometry">
            <mxPoint as="offset" />
          </mxGeometry>
        </mxCell>
        <mxCell id="iP3Lr3HVFY1aXU4YxGAK-65" value="&lt;p style=&quot;margin: 0in ; font-family: &amp;#34;calibri&amp;#34; ; font-size: 11.0pt&quot; lang=&quot;en-US&quot;&gt;Visual Studio&lt;/p&gt;" style="rounded=1;whiteSpace=wrap;html=1;" parent="iP3Lr3HVFY1aXU4YxGAK-37" vertex="1">
          <mxGeometry x="210" y="10" width="170" height="40" as="geometry" />
        </mxCell>
        <mxCell id="iP3Lr3HVFY1aXU4YxGAK-14" value="构建" style="swimlane;html=1;startSize=20;horizontal=0;" parent="iP3Lr3HVFY1aXU4YxGAK-9" vertex="1">
          <mxGeometry x="20" y="290" width="940" height="140" as="geometry" />
        </mxCell>
        <mxCell id="iP3Lr3HVFY1aXU4YxGAK-38" value="GNU make" style="rounded=1;whiteSpace=wrap;html=1;" parent="iP3Lr3HVFY1aXU4YxGAK-14" vertex="1">
          <mxGeometry x="260" y="55" width="120" height="60" as="geometry" />
        </mxCell>
        <mxCell id="iP3Lr3HVFY1aXU4YxGAK-39" value="ninja (C++编写)" style="rounded=1;whiteSpace=wrap;html=1;" parent="iP3Lr3HVFY1aXU4YxGAK-14" vertex="1">
          <mxGeometry x="410" y="55" width="120" height="60" as="geometry" />
        </mxCell>
        <mxCell id="iP3Lr3HVFY1aXU4YxGAK-40" value="Microsoft NMake" style="rounded=1;whiteSpace=wrap;html=1;" parent="iP3Lr3HVFY1aXU4YxGAK-14" vertex="1">
          <mxGeometry x="50" y="50" width="120" height="60" as="geometry" />
        </mxCell>
        <mxCell id="iP3Lr3HVFY1aXU4YxGAK-13" value="平台工程" style="swimlane;html=1;startSize=20;horizontal=0;" parent="iP3Lr3HVFY1aXU4YxGAK-9" vertex="1">
          <mxGeometry x="20" y="430" width="940" height="100" as="geometry" />
        </mxCell>
        <mxCell id="iP3Lr3HVFY1aXU4YxGAK-33" value="msvc" style="rounded=1;whiteSpace=wrap;html=1;" parent="iP3Lr3HVFY1aXU4YxGAK-13" vertex="1">
          <mxGeometry x="70" y="20" width="120" height="60" as="geometry" />
        </mxCell>
        <mxCell id="iP3Lr3HVFY1aXU4YxGAK-34" value="xcode" style="rounded=1;whiteSpace=wrap;html=1;" parent="iP3Lr3HVFY1aXU4YxGAK-13" vertex="1">
          <mxGeometry x="260" y="20" width="120" height="60" as="geometry" />
        </mxCell>
        <mxCell id="iP3Lr3HVFY1aXU4YxGAK-72" value="make 工程" style="rounded=1;whiteSpace=wrap;html=1;" parent="iP3Lr3HVFY1aXU4YxGAK-13" vertex="1">
          <mxGeometry x="460" y="20" width="120" height="60" as="geometry" />
        </mxCell>
        <mxCell id="iP3Lr3HVFY1aXU4YxGAK-10" value="编译器" style="swimlane;html=1;startSize=20;horizontal=0;" parent="iP3Lr3HVFY1aXU4YxGAK-9" vertex="1">
          <mxGeometry x="20" y="530" width="940" height="110" as="geometry" />
        </mxCell>
        <mxCell id="iP3Lr3HVFY1aXU4YxGAK-20" value="gcc" style="rounded=1;whiteSpace=wrap;html=1;" parent="iP3Lr3HVFY1aXU4YxGAK-10" vertex="1">
          <mxGeometry x="310" y="30" width="120" height="60" as="geometry" />
        </mxCell>
        <mxCell id="iP3Lr3HVFY1aXU4YxGAK-21" value="llvm" style="rounded=1;whiteSpace=wrap;html=1;" parent="iP3Lr3HVFY1aXU4YxGAK-10" vertex="1">
          <mxGeometry x="470" y="30" width="120" height="60" as="geometry" />
        </mxCell>
        <mxCell id="iP3Lr3HVFY1aXU4YxGAK-25" value="minGW&lt;br&gt;(gcc)" style="rounded=1;whiteSpace=wrap;html=1;" parent="iP3Lr3HVFY1aXU4YxGAK-10" vertex="1">
          <mxGeometry x="174" y="30" width="120" height="60" as="geometry" />
        </mxCell>
        <mxCell id="iP3Lr3HVFY1aXU4YxGAK-26" value="vc&lt;br&gt;viusal c++&lt;br&gt;msvc" style="rounded=1;whiteSpace=wrap;html=1;" parent="iP3Lr3HVFY1aXU4YxGAK-10" vertex="1">
          <mxGeometry x="50" y="30" width="120" height="60" as="geometry" />
        </mxCell>
        <mxCell id="iP3Lr3HVFY1aXU4YxGAK-11" value="汇编" style="swimlane;html=1;startSize=20;horizontal=0;" parent="iP3Lr3HVFY1aXU4YxGAK-9" vertex="1">
          <mxGeometry x="20" y="640" width="940" height="90" as="geometry" />
        </mxCell>
        <mxCell id="iP3Lr3HVFY1aXU4YxGAK-15" value="asm" style="rounded=1;whiteSpace=wrap;html=1;" parent="iP3Lr3HVFY1aXU4YxGAK-11" vertex="1">
          <mxGeometry x="350" y="20" width="120" height="60" as="geometry" />
        </mxCell>
        <mxCell id="iP3Lr3HVFY1aXU4YxGAK-16" value="nasm" style="rounded=1;whiteSpace=wrap;html=1;" parent="iP3Lr3HVFY1aXU4YxGAK-11" vertex="1">
          <mxGeometry x="60" y="60" width="70" height="20" as="geometry" />
        </mxCell>
        <mxCell id="iP3Lr3HVFY1aXU4YxGAK-12" value="操作系统" style="swimlane;html=1;startSize=20;horizontal=0;" parent="iP3Lr3HVFY1aXU4YxGAK-9" vertex="1">
          <mxGeometry x="20" y="730" width="940" height="120" as="geometry" />
        </mxCell>
        <mxCell id="SwWGJBYFdbmqOQ8mH4nQ-5" value="windows" style="shape=cube;whiteSpace=wrap;html=1;boundedLbl=1;backgroundOutline=1;darkOpacity=0.05;darkOpacity2=0.1;" parent="iP3Lr3HVFY1aXU4YxGAK-12" vertex="1">
          <mxGeometry x="80" y="25" width="120" height="80" as="geometry" />
        </mxCell>
        <mxCell id="SwWGJBYFdbmqOQ8mH4nQ-6" value="linux" style="shape=cube;whiteSpace=wrap;html=1;boundedLbl=1;backgroundOutline=1;darkOpacity=0.05;darkOpacity2=0.1;" parent="iP3Lr3HVFY1aXU4YxGAK-12" vertex="1">
          <mxGeometry x="300" y="25" width="120" height="80" as="geometry" />
        </mxCell>
        <mxCell id="SwWGJBYFdbmqOQ8mH4nQ-7" value="mac" style="shape=cube;whiteSpace=wrap;html=1;boundedLbl=1;backgroundOutline=1;darkOpacity=0.05;darkOpacity2=0.1;" parent="iP3Lr3HVFY1aXU4YxGAK-12" vertex="1">
          <mxGeometry x="540" y="25" width="120" height="80" as="geometry" />
        </mxCell>
        <mxCell id="iP3Lr3HVFY1aXU4YxGAK-17" style="edgeStyle=orthogonalEdgeStyle;rounded=0;orthogonalLoop=1;jettySize=auto;html=1;" parent="iP3Lr3HVFY1aXU4YxGAK-9" source="iP3Lr3HVFY1aXU4YxGAK-16" target="SwWGJBYFdbmqOQ8mH4nQ-5" edge="1">
          <mxGeometry relative="1" as="geometry" />
        </mxCell>
        <mxCell id="iP3Lr3HVFY1aXU4YxGAK-27" style="edgeStyle=orthogonalEdgeStyle;rounded=0;orthogonalLoop=1;jettySize=auto;html=1;entryX=0.667;entryY=0;entryDx=0;entryDy=0;entryPerimeter=0;" parent="iP3Lr3HVFY1aXU4YxGAK-9" source="iP3Lr3HVFY1aXU4YxGAK-26" target="SwWGJBYFdbmqOQ8mH4nQ-5" edge="1">
          <mxGeometry relative="1" as="geometry" />
        </mxCell>
        <mxCell id="iP3Lr3HVFY1aXU4YxGAK-28" style="edgeStyle=orthogonalEdgeStyle;rounded=0;orthogonalLoop=1;jettySize=auto;html=1;entryX=0;entryY=0;entryDx=100;entryDy=0;entryPerimeter=0;" parent="iP3Lr3HVFY1aXU4YxGAK-9" source="iP3Lr3HVFY1aXU4YxGAK-25" target="SwWGJBYFdbmqOQ8mH4nQ-5" edge="1">
          <mxGeometry relative="1" as="geometry">
            <mxPoint x="180" y="660" as="targetPoint" />
          </mxGeometry>
        </mxCell>
        <mxCell id="iP3Lr3HVFY1aXU4YxGAK-29" style="edgeStyle=orthogonalEdgeStyle;rounded=0;orthogonalLoop=1;jettySize=auto;html=1;" parent="iP3Lr3HVFY1aXU4YxGAK-9" source="iP3Lr3HVFY1aXU4YxGAK-21" target="SwWGJBYFdbmqOQ8mH4nQ-7" edge="1">
          <mxGeometry relative="1" as="geometry" />
        </mxCell>
        <mxCell id="iP3Lr3HVFY1aXU4YxGAK-30" style="edgeStyle=orthogonalEdgeStyle;rounded=0;orthogonalLoop=1;jettySize=auto;html=1;exitX=0.5;exitY=1;exitDx=0;exitDy=0;" parent="iP3Lr3HVFY1aXU4YxGAK-9" source="iP3Lr3HVFY1aXU4YxGAK-15" target="SwWGJBYFdbmqOQ8mH4nQ-6" edge="1">
          <mxGeometry relative="1" as="geometry" />
        </mxCell>
        <mxCell id="iP3Lr3HVFY1aXU4YxGAK-31" style="edgeStyle=orthogonalEdgeStyle;rounded=0;orthogonalLoop=1;jettySize=auto;html=1;" parent="iP3Lr3HVFY1aXU4YxGAK-9" source="iP3Lr3HVFY1aXU4YxGAK-20" target="SwWGJBYFdbmqOQ8mH4nQ-6" edge="1">
          <mxGeometry relative="1" as="geometry" />
        </mxCell>
        <mxCell id="iP3Lr3HVFY1aXU4YxGAK-53" style="rounded=0;orthogonalLoop=1;jettySize=auto;html=1;exitX=0.5;exitY=1;exitDx=0;exitDy=0;" parent="iP3Lr3HVFY1aXU4YxGAK-9" source="iP3Lr3HVFY1aXU4YxGAK-52" target="iP3Lr3HVFY1aXU4YxGAK-39" edge="1">
          <mxGeometry relative="1" as="geometry" />
        </mxCell>
        <mxCell id="iP3Lr3HVFY1aXU4YxGAK-55" style="edgeStyle=orthogonalEdgeStyle;rounded=0;orthogonalLoop=1;jettySize=auto;html=1;" parent="iP3Lr3HVFY1aXU4YxGAK-9" source="iP3Lr3HVFY1aXU4YxGAK-45" target="iP3Lr3HVFY1aXU4YxGAK-38" edge="1">
          <mxGeometry relative="1" as="geometry" />
        </mxCell>
        <mxCell id="iP3Lr3HVFY1aXU4YxGAK-56" style="edgeStyle=orthogonalEdgeStyle;rounded=0;orthogonalLoop=1;jettySize=auto;html=1;entryX=0.633;entryY=0.022;entryDx=0;entryDy=0;entryPerimeter=0;" parent="iP3Lr3HVFY1aXU4YxGAK-9" source="iP3Lr3HVFY1aXU4YxGAK-51" target="iP3Lr3HVFY1aXU4YxGAK-38" edge="1">
          <mxGeometry relative="1" as="geometry" />
        </mxCell>
        <mxCell id="iP3Lr3HVFY1aXU4YxGAK-57" style="rounded=0;orthogonalLoop=1;jettySize=auto;html=1;entryX=0.25;entryY=0;entryDx=0;entryDy=0;" parent="iP3Lr3HVFY1aXU4YxGAK-9" target="iP3Lr3HVFY1aXU4YxGAK-39" edge="1">
          <mxGeometry relative="1" as="geometry">
            <mxPoint x="525" y="225" as="sourcePoint" />
          </mxGeometry>
        </mxCell>
        <mxCell id="iP3Lr3HVFY1aXU4YxGAK-71" style="rounded=0;orthogonalLoop=1;jettySize=auto;html=1;exitX=0.5;exitY=1;exitDx=0;exitDy=0;" parent="iP3Lr3HVFY1aXU4YxGAK-9" source="iP3Lr3HVFY1aXU4YxGAK-51" target="iP3Lr3HVFY1aXU4YxGAK-33" edge="1">
          <mxGeometry relative="1" as="geometry" />
        </mxCell>
        <mxCell id="iP3Lr3HVFY1aXU4YxGAK-73" style="rounded=0;orthogonalLoop=1;jettySize=auto;html=1;exitX=0.5;exitY=1;exitDx=0;exitDy=0;" parent="iP3Lr3HVFY1aXU4YxGAK-9" source="iP3Lr3HVFY1aXU4YxGAK-51" target="iP3Lr3HVFY1aXU4YxGAK-34" edge="1">
          <mxGeometry relative="1" as="geometry" />
        </mxCell>
        <mxCell id="iP3Lr3HVFY1aXU4YxGAK-74" style="rounded=0;orthogonalLoop=1;jettySize=auto;html=1;exitX=0.5;exitY=1;exitDx=0;exitDy=0;entryX=0.4;entryY=-0.006;entryDx=0;entryDy=0;entryPerimeter=0;" parent="iP3Lr3HVFY1aXU4YxGAK-9" source="iP3Lr3HVFY1aXU4YxGAK-51" target="iP3Lr3HVFY1aXU4YxGAK-72" edge="1">
          <mxGeometry relative="1" as="geometry" />
        </mxCell>
        <mxCell id="iP3Lr3HVFY1aXU4YxGAK-75" style="edgeStyle=none;rounded=0;orthogonalLoop=1;jettySize=auto;html=1;exitX=0.5;exitY=1;exitDx=0;exitDy=0;" parent="iP3Lr3HVFY1aXU4YxGAK-9" source="iP3Lr3HVFY1aXU4YxGAK-62" target="iP3Lr3HVFY1aXU4YxGAK-40" edge="1">
          <mxGeometry relative="1" as="geometry">
            <mxPoint x="125" y="240" as="targetPoint" />
          </mxGeometry>
        </mxCell>
        <mxCell id="O_2TTQXraL5R9_XLtRcp-1" value="呵呵" style="ellipse;whiteSpace=wrap;html=1;" vertex="1" parent="1">
          <mxGeometry x="270" y="600" width="120" height="80" as="geometry" />
        </mxCell>
      </root>
    </mxGraphModel>
  </diagram>
</mxfile>
